<svg width="32" height="40" viewBox="0 0 32 40" fill="none" xmlns="http://www.w3.org/2000/svg">
<g clip-path="url(#clip0)">
<path d="M28.8656 12.9875C28.6984 12.5838 28.4035 12.2459 28.0261 12.0256C27.6486 11.8052 27.2094 11.7146 26.7756 11.7675C26.2798 11.8233 25.7778 11.7687 25.3056 11.6075C24.6276 11.3942 24.0379 10.9651 23.6263 10.3856C23.2147 9.80612 23.0037 9.10799 23.0256 8.39753C23.0564 7.65354 23.3506 6.9447 23.8556 6.39753C24.1448 6.07227 24.323 5.66339 24.3644 5.23011C24.4057 4.79683 24.3081 4.36163 24.0856 3.98753C23.8579 3.59959 23.506 3.29975 23.0869 3.13645C22.6677 2.97314 22.2058 2.95591 21.7756 3.08753L21.3556 3.20753C20.2146 3.54914 19.1735 4.16257 18.3218 4.99515C17.47 5.82772 16.8331 6.85457 16.4656 7.98753C16.4656 8.11753 16.4056 8.24753 16.3756 8.37753C15.3521 7.93718 14.2498 7.70924 13.1356 7.70753C11.376 7.74575 9.66939 8.31675 8.24108 9.34513C6.81278 10.3735 5.72996 11.8109 5.13561 13.4675H4.73561C4.18987 13.5211 3.66021 13.6825 3.17739 13.9425C2.69456 14.2025 2.26819 14.5557 1.92302 14.9818C1.57786 15.4079 1.32079 15.8984 1.16674 16.4247C1.01268 16.9509 0.96471 17.5026 1.02561 18.0475C1.036 19.1777 1.4889 20.2588 2.28716 21.0589C3.08542 21.8591 4.16546 22.3145 5.29561 22.3275H22.0256C23.0107 22.3197 23.9534 21.9256 24.651 21.2299C25.3485 20.5343 25.7452 19.5926 25.7556 18.6075C25.7933 17.9786 25.6873 17.3494 25.4456 16.7675C26.4943 16.4883 27.4678 15.9793 28.2956 15.2775C28.6212 15.0056 28.8519 14.6372 28.9544 14.2256C29.0568 13.8139 29.0257 13.3804 28.8656 12.9875ZM22.0256 20.3275H5.30561C4.68671 20.3118 4.09927 20.0515 3.67193 19.6035C3.24459 19.1555 3.01218 18.5565 3.02561 17.9375C2.98208 17.6492 2.99711 17.355 3.06981 17.0726C3.1425 16.7902 3.27137 16.5254 3.44872 16.2939C3.62607 16.0624 3.84826 15.869 4.10201 15.7253C4.35576 15.5816 4.63587 15.4905 4.92561 15.4575C5.1188 15.447 5.31242 15.447 5.50561 15.4575H5.77561C6.00006 15.4658 6.22077 15.3983 6.40217 15.2659C6.58358 15.1335 6.71512 14.9438 6.77561 14.7275C7.15136 13.3197 7.97321 12.0716 9.11802 11.1701C10.2628 10.2687 11.6689 9.76257 13.1256 9.72753C14.7843 9.7742 16.3684 10.4266 17.5789 11.5615C18.7893 12.6964 19.5423 14.2353 19.6956 15.8875C19.7117 16.0276 19.7572 16.1626 19.8291 16.2838C19.901 16.405 19.9977 16.5097 20.1129 16.5909C20.2281 16.6721 20.3592 16.728 20.4975 16.755C20.6359 16.782 20.7783 16.7795 20.9156 16.7475C21.374 16.64 21.8472 16.6096 22.3156 16.6575C22.535 16.6844 22.7468 16.7551 22.9384 16.8654C23.13 16.9757 23.2974 17.1234 23.4308 17.2997C23.5642 17.476 23.6608 17.6773 23.7149 17.8917C23.769 18.106 23.7794 18.3291 23.7456 18.5475C23.7434 19.0087 23.5633 19.4511 23.2429 19.7827C22.9224 20.1143 22.4864 20.3095 22.0256 20.3275ZM23.8256 14.9875C23.4254 14.7847 22.9917 14.656 22.5456 14.6075C22.2128 14.5801 21.8784 14.5801 21.5456 14.6075C21.0772 12.5569 19.9107 10.7328 18.2456 9.44753C18.2706 9.14318 18.3242 8.84185 18.4056 8.54753C18.6747 7.74228 19.133 7.01328 19.7419 6.42169C20.3509 5.8301 21.0929 5.39317 21.9056 5.14753C22.0536 5.09805 22.2098 5.07768 22.3656 5.08753C21.5573 5.9679 21.0831 7.10375 21.0256 8.29753C20.9927 9.44761 21.3362 10.577 22.0041 11.5138C22.672 12.4507 23.6276 13.1437 24.7256 13.4875C25.4725 13.7342 26.2626 13.8227 27.0456 13.7475C26.1395 14.5065 25.0067 14.9427 23.8256 14.9875Z" fill="#646788"/>
</g>
<defs>
<clipPath id="clip0">
<rect width="32" height="40" fill="white"/>
</clipPath>
</defs>
</svg>
