<svg width="6" height="13" viewBox="0 0 6 13" fill="none" xmlns="http://www.w3.org/2000/svg">
<path d="M5.66668 6.50007C5.66704 6.68504 5.60262 6.8643 5.4846 7.00673L1.52627 11.7567C1.39189 11.9184 1.19879 12.0201 0.989454 12.0394C0.780117 12.0587 0.571686 11.994 0.410015 11.8596C0.248343 11.7253 0.146674 11.5322 0.127373 11.3228C0.108073 11.1135 0.172721 10.9051 0.307098 10.7434L3.85376 6.50007L0.433765 2.25673C0.368004 2.17575 0.318896 2.08258 0.289262 1.98256C0.259629 1.88254 0.250054 1.77765 0.26109 1.67392C0.272125 1.57019 0.303551 1.46966 0.353564 1.37812C0.403577 1.28657 0.471189 1.20581 0.552514 1.14048C0.633915 1.06798 0.729411 1.01307 0.833019 0.979195C0.936627 0.945317 1.04612 0.933202 1.15462 0.943607C1.26313 0.954012 1.36832 0.986712 1.4636 1.03966C1.55889 1.09261 1.64221 1.16467 1.70835 1.25132L5.5321 6.00132C5.63146 6.14784 5.67885 6.32344 5.66668 6.50007Z" fill="#9C9EB3"/>
</svg>
